<?xml version="1.0" standalone="no"?>
<!DOCTYPE svg PUBLIC "-//W3C//DTD SVG 20010904//EN"
 "http://www.w3.org/TR/2001/REC-SVG-20010904/DTD/svg10.dtd">
<svg version="1.0" xmlns="http://www.w3.org/2000/svg"
 width="185.000000pt" height="185.000000pt" viewBox="0 0 185.000000 185.000000"
 preserveAspectRatio="xMidYMid meet">
<metadata>
Created by potrace 1.11, written by Peter Selinger 2001-2013
</metadata>
<g transform="translate(0.000000,185.000000) scale(0.100000,-0.100000)"
fill="#000000" stroke="none">
<path d="M790 1834 c-76 -15 -182 -46 -235 -69 -147 -65 -309 -203 -400 -340
-168 -254 -195 -598 -70 -881 61 -137 194 -297 319 -383 70 -48 202 -108 291
-133 118 -32 336 -32 454 0 328 89 567 327 663 658 20 68 23 101 22 239 0 145
-3 168 -28 250 -94 308 -327 540 -631 630 -74 22 -115 28 -225 30 -74 2 -146
1 -160 -1z m280 -88 c160 -29 309 -105 428 -220 115 -110 183 -222 227 -373
63 -217 35 -450 -78 -653 -57 -101 -205 -250 -307 -307 -426 -239 -957 -74
-1166 362 -68 140 -79 195 -79 375 1 149 2 159 33 250 18 52 47 119 64 148
178 312 531 480 878 418z"/>
<path d="M790 1729 c-155 -26 -327 -115 -440 -229 -401 -402 -285 -1076 225
-1316 130 -61 207 -78 350 -78 127 1 197 14 307 58 184 75 346 231 432 418 57
122 70 186 70 338 0 161 -19 244 -89 379 -161 309 -513 486 -855 430z m355
-57 c187 -62 332 -170 430 -322 90 -138 125 -258 125 -431 0 -145 -22 -235
-87 -362 -38 -75 -64 -109 -143 -187 -149 -150 -299 -217 -506 -227 -380 -19
-703 220 -800 592 -26 100 -24 283 4 388 76 279 304 498 587 563 88 20 311 12
390 -14z"/>
<path d="M865 1605 l0 -55 38 0 c26 0 37 4 37 15 0 11 -7 14 -25 9 -19 -5 -25
-2 -25 10 0 9 7 16 15 16 8 0 15 5 15 10 0 6 -8 10 -17 8 -11 -2 -18 3 -18 12
0 10 8 14 23 13 12 -2 22 2 22 7 0 6 -15 10 -32 10 l-33 0 0 -55z"/>
<path d="M995 1652 c-11 -11 -4 -23 12 -20 15 2 17 -3 14 -32 -1 -19 -7 -36
-12 -38 -16 -6 -9 -22 9 -22 11 0 19 7 19 18 -1 64 3 73 24 67 15 -5 20 -3 17
6 -5 14 -73 31 -83 21z"/>
<path d="M774 1644 c-8 -3 -8 -17 -1 -49 6 -25 7 -48 3 -52 -13 -13 -41 13
-46 43 -4 22 -11 30 -30 32 -44 4 -50 -8 -31 -64 10 -30 22 -49 29 -46 8 2 9
9 2 22 -7 13 -7 21 0 25 14 9 30 -3 30 -22 0 -10 6 -13 16 -9 9 3 33 9 55 12
38 6 57 19 45 31 -3 3 -13 0 -22 -7 -13 -12 -17 -11 -24 0 -11 17 -4 30 16 30
8 0 14 4 14 9 0 5 -9 7 -21 4 -17 -5 -20 -2 -17 13 2 11 11 18 21 16 9 -2 17
2 17 8 0 10 -35 13 -56 4z m-56 -51 c5 -18 -28 -29 -38 -12 -5 7 -6 17 -3 22
7 12 35 5 41 -10z"/>
<path d="M1103 1615 c0 -13 -7 -37 -16 -54 -15 -29 -14 -31 4 -31 11 0 17 5
14 10 -3 6 -3 15 0 20 11 18 36 -10 30 -31 -4 -12 -1 -19 8 -19 9 0 12 9 9 30
-3 18 0 30 7 30 6 0 11 10 11 23 0 18 -8 26 -34 34 -31 10 -33 9 -33 -12z m53
-16 c7 -12 -15 -31 -28 -23 -4 3 -8 12 -8 20 0 17 26 19 36 3z"/>
<path d="M1215 1590 c6 -10 -22 -71 -38 -81 -13 -9 50 -42 63 -34 6 4 8 11 4
16 -3 5 -9 7 -13 5 -4 -3 -13 -1 -20 4 -21 12 -3 32 22 24 22 -7 22 -6 3 14
-18 21 -18 22 0 29 10 4 19 2 22 -5 4 -14 22 -16 22 -2 0 5 -13 16 -30 25 -34
17 -44 19 -35 5z"/>
<path d="M590 1580 c-8 -5 -10 -10 -4 -10 22 0 24 -29 2 -41 -16 -8 -22 -8
-29 2 -4 7 -5 17 -3 21 3 4 1 8 -5 8 -26 0 -21 -19 26 -109 1 -1 6 0 12 3 7 5
7 13 -2 27 -10 16 -9 21 3 29 24 15 38 12 42 -10 2 -13 7 -17 16 -11 11 6 8
16 -12 46 -14 20 -23 41 -20 46 7 12 -7 11 -26 -1z"/>
<path d="M1290 1509 c-13 -22 -28 -39 -32 -39 -4 0 -8 -4 -8 -8 0 -11 56 -43
64 -35 9 9 8 25 -2 19 -13 -8 -35 11 -27 23 4 7 16 9 28 5 20 -6 20 -5 8 10
-11 13 -12 19 -2 29 10 9 15 8 26 -6 7 -10 16 -14 19 -8 4 5 -6 18 -21 29
l-28 20 -25 -39z"/>
<path d="M460 1495 c-13 -14 -20 -28 -16 -32 4 -4 11 -1 16 7 8 12 14 10 35
-15 13 -16 24 -33 25 -37 0 -11 30 3 30 14 0 5 -4 7 -8 4 -5 -3 -19 8 -30 24
-23 30 -29 56 -12 45 6 -3 10 -1 10 4 0 19 -26 12 -50 -14z"/>
<path d="M820 1503 c-60 -10 -154 -47 -211 -85 -142 -91 -235 -232 -266 -402
-15 -80 -15 -96 0 -183 50 -307 312 -520 617 -499 157 10 266 61 380 176 117
117 170 247 170 412 0 166 -53 291 -175 413 -89 89 -166 134 -276 160 -59 14
-180 18 -239 8z m235 -48 c176 -46 321 -176 383 -344 50 -134 40 -304 -24
-436 -35 -70 -102 -151 -123 -147 -61 13 -81 12 -129 -7 -76 -30 -83 -28 -80
19 2 44 -8 62 -23 40 -8 -13 -10 -13 -19 0 -9 13 -11 13 -20 0 -8 -12 -11 -13
-19 -1 -6 10 -10 10 -16 1 -5 -8 -11 -5 -21 9 -11 15 -14 47 -12 128 3 96 5
108 22 111 26 5 129 -28 139 -45 7 -11 17 -5 45 23 29 29 38 33 40 21 2 -10
12 -17 23 -17 11 0 22 -6 25 -14 3 -8 13 -12 25 -9 15 4 17 8 8 19 -14 17 -3
64 21 86 18 17 35 18 57 5 7 -4 14 1 19 15 4 13 2 24 -5 26 -6 2 -9 8 -5 13 3
5 14 -1 24 -13 10 -13 22 -20 26 -16 4 4 1 15 -7 24 -12 15 -11 16 9 10 12 -4
22 -4 22 1 0 12 -58 36 -93 39 -35 3 -49 14 -19 14 28 0 29 20 2 27 -11 3 -20
14 -20 24 0 10 -9 24 -20 32 -11 8 -17 17 -13 20 3 4 -4 7 -16 7 -18 0 -21 4
-16 21 5 15 2 22 -14 26 -11 3 -18 9 -16 14 3 4 0 11 -8 16 -7 4 -18 20 -24
36 -11 23 -19 27 -55 28 -24 0 -52 5 -63 10 -15 7 -12 7 13 3 29 -5 33 -3 30
13 -2 10 -11 16 -19 15 -40 -10 -59 -12 -59 -5 0 19 -158 17 -223 -2 -29 -9
-54 -16 -57 -17 -29 -6 -60 -22 -60 -29 0 -5 -6 -9 -14 -9 -16 0 -126 -99
-110 -100 5 0 14 3 20 8 5 4 -3 -5 -18 -20 -16 -16 -35 -28 -44 -28 -9 0 -14
-6 -11 -12 2 -7 10 -12 16 -10 6 1 11 -2 11 -8 0 -5 -9 -10 -20 -10 -11 0 -20
-2 -20 -4 0 -2 -3 -12 -7 -22 -4 -12 -3 -15 6 -10 9 6 9 3 -1 -13 -7 -12 -23
-24 -35 -27 -13 -4 -20 -10 -18 -15 3 -4 13 -6 23 -3 11 4 7 -4 -11 -20 -27
-25 -27 -26 -8 -45 11 -11 22 -16 26 -13 3 4 10 0 15 -8 8 -13 10 -12 10 3 0
11 6 17 18 15 10 -2 16 2 14 11 -3 13 14 31 31 31 4 0 7 -9 7 -20 0 -11 -4
-20 -10 -20 -5 0 -10 -5 -10 -11 0 -6 8 -9 18 -7 20 5 47 -37 31 -48 -5 -3 -9
2 -9 10 0 20 -11 20 -36 1 -12 -9 -14 -14 -6 -15 9 0 7 -8 -7 -26 -22 -28 -28
-50 -11 -39 5 3 10 1 10 -6 0 -8 9 -4 23 8 12 11 28 18 35 16 6 -3 12 2 12 11
0 22 16 20 33 -4 15 -21 29 -17 20 6 -7 19 6 18 28 -2 17 -15 19 -15 35 0 13
13 29 16 70 13 58 -5 71 5 27 21 l-28 10 32 -1 c45 0 55 -27 56 -151 1 -105
-5 -134 -24 -106 -8 13 -10 13 -19 0 -9 -13 -11 -13 -21 0 -9 12 -12 13 -16 1
-4 -11 -7 -11 -13 -1 -6 11 -12 10 -24 -3 -10 -10 -12 -18 -6 -22 5 -3 10 -15
10 -25 0 -15 -8 -18 -52 -18 -29 0 -76 -4 -104 -7 l-51 -7 -43 49 c-98 111
-140 223 -140 373 0 165 54 293 172 403 133 124 331 176 503 132z m-300 -275
c3 -5 1 -10 -4 -10 -6 0 -11 5 -11 10 0 6 2 10 4 10 3 0 8 -4 11 -10z m45
-134 c0 -3 -4 -8 -10 -11 -5 -3 -10 -1 -10 4 0 6 5 11 10 11 6 0 10 -2 10 -4z
m275 -6 c-3 -5 -14 -10 -23 -10 -15 0 -15 2 -2 10 20 13 33 13 25 0z m55 -20
c0 -5 -4 -10 -10 -10 -5 0 -10 5 -10 10 0 6 5 10 10 10 6 0 10 -4 10 -10z
m-500 -30 c0 -11 5 -20 12 -20 29 0 -5 -12 -47 -16 -36 -3 -45 -1 -38 8 4 7 8
18 8 23 0 6 13 9 29 7 17 -2 25 1 21 7 -3 6 -1 11 4 11 6 0 11 -9 11 -20z m74
11 c6 -9 -35 -24 -43 -15 -6 5 18 24 31 24 4 0 9 -4 12 -9z m547 -3 c1 -7 3
-23 4 -35 3 -27 -6 -28 -59 -4 l-40 17 24 17 c29 20 69 22 71 5z m-156 -8 c3
-5 1 -10 -4 -10 -6 0 -11 5 -11 10 0 6 2 10 4 10 3 0 8 -4 11 -10z m-301 -39
c7 -11 -22 -23 -35 -15 -5 3 -9 9 -9 15 0 12 37 12 44 0z m-119 -51 c3 -5 1
-10 -4 -10 -6 0 -11 5 -11 10 0 6 2 10 4 10 3 0 8 -4 11 -10z m540 -30 c3 -5
2 -10 -4 -10 -5 0 -13 5 -16 10 -3 6 -2 10 4 10 5 0 13 -4 16 -10z m-565 -10
c0 -5 -5 -10 -11 -10 -5 0 -7 5 -4 10 3 6 8 10 11 10 2 0 4 -4 4 -10z m585
-20 c3 -5 2 -10 -4 -10 -5 0 -13 5 -16 10 -3 6 -2 10 4 10 5 0 13 -4 16 -10z
m-439 -317 c-11 -11 -19 6 -11 24 8 17 8 17 12 0 3 -10 2 -21 -1 -24z m79 28
c3 -5 1 -12 -5 -16 -5 -3 -10 1 -10 9 0 18 6 21 15 7z m145 -16 c0 -14 -4 -25
-10 -25 -11 0 -14 33 -3 43 11 11 13 8 13 -18z m40 -11 c0 -13 -4 -24 -10 -24
-5 0 -10 14 -10 31 0 17 4 28 10 24 6 -3 10 -17 10 -31z m-220 16 c0 -5 -4
-10 -10 -10 -5 0 -10 5 -10 10 0 6 5 10 10 10 6 0 10 -4 10 -10z m150 -5 c0
-8 -4 -15 -10 -15 -5 0 -10 7 -10 15 0 8 5 15 10 15 6 0 10 -7 10 -15z"/>
<path d="M1375 1469 c-4 -6 -4 -26 -1 -45 5 -26 4 -34 -8 -34 -8 0 -20 8 -25
18 -10 16 -10 16 -11 0 0 -10 10 -22 21 -29 32 -17 57 11 41 45 -14 32 5 48
24 21 8 -10 17 -16 21 -12 8 9 -26 47 -43 47 -7 0 -16 -5 -19 -11z"/>
<path d="M275 1210 c-3 -5 -3 -15 1 -21 4 -8 0 -9 -15 -4 -15 4 -21 2 -21 -9
0 -33 82 -34 88 -2 3 14 0 17 -12 13 -10 -4 -16 -1 -16 8 0 18 -17 28 -25 15z"/>
<path d="M1538 1214 c-4 -3 -4 -13 -1 -22 4 -10 2 -13 -5 -8 -7 4 -17 4 -22 1
-18 -11 10 -35 40 -35 30 0 58 24 40 35 -5 3 -15 3 -21 0 -6 -4 -9 0 -7 10 3
18 -13 31 -24 19z"/>
<path d="M227 954 c-3 -3 -3 -13 0 -21 5 -12 1 -14 -15 -8 -25 7 -29 -9 -8
-31 18 -17 48 -18 64 -2 17 17 15 41 -3 34 -9 -3 -15 0 -15 9 0 16 -14 27 -23
19z"/>
<path d="M1594 944 c4 -12 2 -15 -9 -11 -20 8 -29 -11 -15 -28 24 -29 80 -12
80 23 0 8 -6 12 -15 8 -9 -3 -15 0 -15 9 0 8 -7 15 -16 15 -11 0 -14 -5 -10
-16z"/>
<path d="M284 684 c4 -12 2 -15 -9 -11 -20 8 -29 -11 -15 -28 24 -29 94 -6 75
25 -3 6 -11 8 -16 5 -5 -4 -9 1 -9 9 0 9 -7 16 -16 16 -11 0 -14 -5 -10 -16z"/>
<path d="M1540 684 c0 -10 -6 -14 -14 -11 -18 7 -28 -17 -13 -32 26 -26 92 -5
80 25 -2 7 -11 10 -19 7 -8 -3 -14 1 -14 11 0 9 -4 16 -10 16 -5 0 -10 -7 -10
-16z"/>
<path d="M1242 374 c-27 -19 -29 -65 -4 -87 22 -20 42 -21 66 -4 15 11 17 19
10 40 -7 21 -12 24 -24 16 -11 -8 -12 -12 -2 -16 17 -7 15 -30 -3 -37 -17 -6
-55 26 -55 48 0 18 27 39 40 31 5 -3 10 -2 10 4 0 18 -16 20 -38 5z"/>
<path d="M576 357 c-3 -12 -14 -32 -26 -44 l-20 -22 21 -12 c18 -9 21 -9 16 3
-3 8 -1 21 4 29 6 11 11 11 21 1 20 -20 32 -13 13 8 -24 26 -6 50 18 26 9 -10
18 -12 22 -7 3 6 -8 17 -24 26 -38 19 -38 19 -45 -8z"/>
<path d="M660 327 c0 -7 -8 -29 -19 -49 l-18 -37 28 -11 c27 -12 49 -7 49 9 0
5 -12 6 -26 3 -24 -4 -26 -2 -19 19 4 13 13 34 21 45 12 21 10 34 -8 34 -4 0
-8 -6 -8 -13z"/>
<path d="M1168 334 c-4 -3 0 -17 8 -32 18 -36 11 -38 -29 -8 -18 14 -36 23
-39 20 -10 -9 26 -104 40 -104 15 0 15 2 -3 36 -19 38 -13 41 28 10 18 -14 36
-24 39 -21 6 6 -25 105 -33 105 -3 0 -8 -3 -11 -6z"/>
<path d="M748 300 c-9 -6 -20 -24 -23 -42 -6 -26 -3 -35 15 -50 28 -23 35 -23
60 2 24 24 26 63 4 84 -18 18 -32 20 -56 6z m48 -25 c4 -8 3 -27 0 -41 -9 -33
-49 -30 -54 4 -6 41 41 72 54 37z"/>
<path d="M1062 303 c-6 -3 -9 -9 -6 -14 3 -6 9 -30 12 -54 4 -27 11 -42 17
-37 15 11 -6 110 -23 105z"/>
<path d="M852 278 c-13 -13 -16 -56 -6 -82 7 -19 55 -21 72 -4 7 7 12 26 12
43 0 36 -15 55 -45 55 -12 0 -26 -5 -33 -12z m56 -45 c-4 -44 -30 -57 -48 -23
-16 31 -4 60 26 60 23 0 25 -3 22 -37z"/>
<path d="M954 275 c3 -9 6 -34 6 -56 0 -28 4 -39 15 -39 8 0 12 6 9 15 -3 8
-3 19 1 25 10 17 35 -8 28 -27 -5 -13 -2 -15 11 -10 10 4 20 7 23 7 3 0 -1 7
-8 17 -8 9 -14 30 -14 47 0 29 -3 31 -39 34 -32 3 -38 1 -32 -13z m54 -18 c2
-10 -3 -17 -11 -17 -16 0 -30 24 -19 34 10 10 27 1 30 -17z"/>
</g>
</svg>
